<mxfile host="Electron" agent="Mozilla/5.0 (Windows NT 10.0; Win64; x64) AppleWebKit/537.36 (KHTML, like Gecko) draw.io/25.0.1 Chrome/128.0.6613.186 Electron/32.2.6 Safari/537.36" version="25.0.1">
  <diagram name="Page-1" id="1TjQmsEsVyWG6pUl8mzX">
    <mxGraphModel dx="1036" dy="606" grid="1" gridSize="10" guides="1" tooltips="1" connect="1" arrows="1" fold="1" page="1" pageScale="1" pageWidth="850" pageHeight="1100" math="0" shadow="0">
      <root>
        <mxCell id="0" />
        <mxCell id="1" parent="0" />
        <mxCell id="ZunEZV0SOw5ac7IoUMRq-1" value="&amp;lt;&amp;lt;proces&amp;gt;&amp;gt;&lt;div&gt;Veb&amp;nbsp;čitač &lt;/div&gt;" style="shape=process;whiteSpace=wrap;html=1;backgroundOutline=1;fontStyle=1" vertex="1" parent="1">
          <mxGeometry x="160" y="160" width="120" height="60" as="geometry" />
        </mxCell>
        <mxCell id="ZunEZV0SOw5ac7IoUMRq-2" value="React" style="shape=process;whiteSpace=wrap;html=1;backgroundOutline=1;fontStyle=1" vertex="1" parent="1">
          <mxGeometry x="160" y="260" width="120" height="60" as="geometry" />
        </mxCell>
        <mxCell id="ZunEZV0SOw5ac7IoUMRq-3" value="&amp;lt;&amp;lt;proces&amp;gt;&amp;gt;&lt;div&gt;Veb server&lt;/div&gt;" style="shape=process;whiteSpace=wrap;html=1;backgroundOutline=1;fontStyle=1" vertex="1" parent="1">
          <mxGeometry x="360" y="160" width="120" height="60" as="geometry" />
        </mxCell>
        <mxCell id="ZunEZV0SOw5ac7IoUMRq-4" value=".NET" style="shape=process;whiteSpace=wrap;html=1;backgroundOutline=1;fontStyle=1" vertex="1" parent="1">
          <mxGeometry x="360" y="260" width="120" height="60" as="geometry" />
        </mxCell>
        <mxCell id="ZunEZV0SOw5ac7IoUMRq-16" value="" style="edgeStyle=orthogonalEdgeStyle;rounded=0;orthogonalLoop=1;jettySize=auto;html=1;strokeWidth=2;fontStyle=1" edge="1" parent="1" source="ZunEZV0SOw5ac7IoUMRq-5" target="ZunEZV0SOw5ac7IoUMRq-6">
          <mxGeometry relative="1" as="geometry" />
        </mxCell>
        <mxCell id="ZunEZV0SOw5ac7IoUMRq-5" value="&amp;lt;&amp;lt;proces&amp;gt;&amp;gt;&lt;div&gt;SQL Server&lt;/div&gt;" style="shape=process;whiteSpace=wrap;html=1;backgroundOutline=1;fontStyle=1" vertex="1" parent="1">
          <mxGeometry x="560" y="160" width="120" height="60" as="geometry" />
        </mxCell>
        <mxCell id="ZunEZV0SOw5ac7IoUMRq-6" value="&amp;lt;&amp;lt;podaci&amp;gt;&amp;gt;&lt;div&gt;Upit&lt;/div&gt;" style="shape=process;whiteSpace=wrap;html=1;backgroundOutline=1;fontStyle=1" vertex="1" parent="1">
          <mxGeometry x="560" y="260" width="120" height="60" as="geometry" />
        </mxCell>
        <mxCell id="ZunEZV0SOw5ac7IoUMRq-7" value="" style="endArrow=classic;html=1;rounded=0;exitX=1;exitY=0.5;exitDx=0;exitDy=0;entryX=0;entryY=0.5;entryDx=0;entryDy=0;dashed=1;dashPattern=1 1;strokeWidth=2;fontStyle=1" edge="1" parent="1" source="ZunEZV0SOw5ac7IoUMRq-1" target="ZunEZV0SOw5ac7IoUMRq-3">
          <mxGeometry width="50" height="50" relative="1" as="geometry">
            <mxPoint x="400" y="340" as="sourcePoint" />
            <mxPoint x="450" y="290" as="targetPoint" />
          </mxGeometry>
        </mxCell>
        <mxCell id="ZunEZV0SOw5ac7IoUMRq-11" value="" style="endArrow=classic;html=1;rounded=0;exitX=1;exitY=0.5;exitDx=0;exitDy=0;entryX=0;entryY=0.5;entryDx=0;entryDy=0;dashed=1;dashPattern=1 1;strokeWidth=2;fontStyle=1" edge="1" parent="1">
          <mxGeometry width="50" height="50" relative="1" as="geometry">
            <mxPoint x="280" y="289.5" as="sourcePoint" />
            <mxPoint x="360" y="289.5" as="targetPoint" />
          </mxGeometry>
        </mxCell>
        <mxCell id="ZunEZV0SOw5ac7IoUMRq-12" value="" style="endArrow=classic;html=1;rounded=0;exitX=1;exitY=0.5;exitDx=0;exitDy=0;entryX=0;entryY=0.5;entryDx=0;entryDy=0;dashed=1;dashPattern=1 1;strokeWidth=2;fontStyle=1" edge="1" parent="1">
          <mxGeometry width="50" height="50" relative="1" as="geometry">
            <mxPoint x="480" y="189.5" as="sourcePoint" />
            <mxPoint x="560" y="189.5" as="targetPoint" />
          </mxGeometry>
        </mxCell>
        <mxCell id="ZunEZV0SOw5ac7IoUMRq-13" value="" style="endArrow=classic;html=1;rounded=0;exitX=1;exitY=0.5;exitDx=0;exitDy=0;entryX=0;entryY=0.5;entryDx=0;entryDy=0;dashed=1;dashPattern=1 1;strokeWidth=2;fontStyle=1" edge="1" parent="1">
          <mxGeometry width="50" height="50" relative="1" as="geometry">
            <mxPoint x="480" y="289.5" as="sourcePoint" />
            <mxPoint x="560" y="289.5" as="targetPoint" />
          </mxGeometry>
        </mxCell>
        <mxCell id="ZunEZV0SOw5ac7IoUMRq-14" value="" style="endArrow=classic;html=1;rounded=0;exitX=1;exitY=0.5;exitDx=0;exitDy=0;entryX=0.413;entryY=0.023;entryDx=0;entryDy=0;entryPerimeter=0;strokeWidth=2;fontStyle=1" edge="1" parent="1">
          <mxGeometry width="50" height="50" relative="1" as="geometry">
            <mxPoint x="419.94" y="220" as="sourcePoint" />
            <mxPoint x="419.49999999999994" y="261.38" as="targetPoint" />
          </mxGeometry>
        </mxCell>
        <mxCell id="ZunEZV0SOw5ac7IoUMRq-18" value="" style="endArrow=classic;startArrow=classic;html=1;rounded=0;exitX=0.5;exitY=0;exitDx=0;exitDy=0;fontStyle=1" edge="1" parent="1" source="ZunEZV0SOw5ac7IoUMRq-2">
          <mxGeometry width="50" height="50" relative="1" as="geometry">
            <mxPoint x="170" y="270" as="sourcePoint" />
            <mxPoint x="220" y="220" as="targetPoint" />
          </mxGeometry>
        </mxCell>
        <mxCell id="ZunEZV0SOw5ac7IoUMRq-19" value="1" style="text;html=1;align=center;verticalAlign=middle;resizable=0;points=[];autosize=1;strokeColor=none;fillColor=none;fontStyle=1" vertex="1" parent="1">
          <mxGeometry x="193" y="212" width="30" height="30" as="geometry" />
        </mxCell>
        <mxCell id="ZunEZV0SOw5ac7IoUMRq-20" value="1" style="text;html=1;align=center;verticalAlign=middle;resizable=0;points=[];autosize=1;strokeColor=none;fillColor=none;fontStyle=1" vertex="1" parent="1">
          <mxGeometry x="193" y="238" width="30" height="30" as="geometry" />
        </mxCell>
        <mxCell id="ZunEZV0SOw5ac7IoUMRq-21" value="1" style="text;html=1;align=center;verticalAlign=middle;resizable=0;points=[];autosize=1;strokeColor=none;fillColor=none;fontStyle=1" vertex="1" parent="1">
          <mxGeometry x="390" y="212" width="30" height="30" as="geometry" />
        </mxCell>
        <mxCell id="ZunEZV0SOw5ac7IoUMRq-22" value="0...n" style="text;html=1;align=center;verticalAlign=middle;resizable=0;points=[];autosize=1;strokeColor=none;fillColor=none;fontStyle=1" vertex="1" parent="1">
          <mxGeometry x="375" y="238" width="50" height="30" as="geometry" />
        </mxCell>
        <mxCell id="ZunEZV0SOw5ac7IoUMRq-23" value="1" style="text;html=1;align=center;verticalAlign=middle;resizable=0;points=[];autosize=1;strokeColor=none;fillColor=none;fontStyle=1" vertex="1" parent="1">
          <mxGeometry x="589" y="212" width="30" height="30" as="geometry" />
        </mxCell>
        <mxCell id="ZunEZV0SOw5ac7IoUMRq-24" value="0...n" style="text;html=1;align=center;verticalAlign=middle;resizable=0;points=[];autosize=1;strokeColor=none;fillColor=none;fontStyle=1" vertex="1" parent="1">
          <mxGeometry x="574" y="238" width="50" height="30" as="geometry" />
        </mxCell>
      </root>
    </mxGraphModel>
  </diagram>
</mxfile>
